<?xml version="1.0" encoding="utf-8"?>

<!DOCTYPE svg PUBLIC "-//W3C//DTD SVG 1.1//EN" "http://www.w3.org/Graphics/SVG/1.1/DTD/svg11.dtd">
<!-- Uploaded to: SVG Repo, www.svgrepo.com, Generator: SVG Repo Mixer Tools -->
<svg height="800px" width="800px" version="1.1" id="_x32_" xmlns="http://www.w3.org/2000/svg" xmlns:xlink="http://www.w3.org/1999/xlink" 
	 viewBox="0 0 512 512"  xml:space="preserve">
<style type="text/css">
	.st0{fill:#ff6347;}
</style>
<g>
	<path class="st0" d="M327.042,246.78H196.887c-0.928,0-1.683,0.755-1.683,1.683v68.735c0,0.928,0.756,1.683,1.683,1.683h130.156
		c0.927,0,1.683-0.756,1.683-1.683v-68.735C328.725,247.535,327.97,246.78,327.042,246.78z M308.865,299.021h-93.801v-32.372h93.801
		V299.021z"/>
	<path class="st0" d="M510.317,282.683c0.927,0,1.683-0.755,1.683-1.683v-21.995c0-0.928-0.756-1.683-1.683-1.683H378.216V152.668
		c-0.058-22.184-7.455-43.374-20.837-59.68c-7.044-8.481-15.436-15.271-24.951-20.172c-10.214-5.189-21.585-7.931-32.882-7.931
		c-11.33,0-22.709,2.742-32.931,7.94c-13.999,7.2-25.69,18.694-33.809,33.226c-7.8,13.884-11.921,30.008-11.921,46.625
		c0,19.121,15.558,34.68,34.671,34.68c19.121,0,34.679-15.558,34.679-34.696c-0.057-5.969,1.766-11.724,4.894-15.41
		c1.461-1.765,2.693-2.48,2.98-2.627c0.705-0.32,1.058-0.386,1.436-0.386c0.378,0,0.738,0.066,1.33,0.328
		c1.789,0.994,3.505,2.874,4.852,5.296c2.02,3.63,3.137,8.186,3.137,12.816v44.614h-93.801v-44.614
		c0-22.134-7.405-43.324-20.846-59.688c-7.003-8.456-15.378-15.238-24.884-20.172c-10.214-5.189-21.585-7.931-32.882-7.931
		c-11.362,0-22.767,2.742-32.988,7.94c-14.031,7.25-25.722,18.735-33.801,33.226c-7.799,13.982-11.929,30.107-11.929,46.625
		c0,19.121,15.558,34.68,34.68,34.68c19.113,0,34.671-15.558,34.671-34.68c0-5.894,1.872-11.798,4.893-15.426
		c1.018-1.232,2.019-2.11,2.972-2.627c0.723-0.329,1.084-0.386,1.503-0.386c0.328,0,0.69,0.066,1.281,0.328
		c1.79,0.994,3.53,2.882,4.902,5.296c1.986,3.563,3.079,8.12,3.079,12.816v104.647H1.683c-0.928,0-1.683,0.755-1.683,1.683V281
		c0,0.928,0.755,1.683,1.683,1.683h144.03c0,0,0,121.378,0,121.501c-5.476,1.881-10.033,4.146-13.448,5.945l-3.81,2.044
		c-4.475,2.415-8.35,4.508-12.636,6.1c-4.417,1.593-10.919,3.424-22.036,3.482c-7.922,0-14.138-0.87-20.155-2.832
		c-3.366-1.092-6.56-2.496-10.69-4.68l-3.826-2.044c-4.417-2.406-9.425-5.124-15.656-7.439c-9.138-3.366-19.032-5-30.755-5
		c-0.008,0-11.018,0-11.018,0c-0.928,0-1.683,0.755-1.683,1.683v21.995c0,0.928,0.755,1.683,1.683,1.683h11.002
		c7.865,0,14.088,0.853,20.131,2.767c4.113,1.387,7.578,3.079,10.698,4.68l3.349,1.814c4.548,2.496,9.696,5.313,16.141,7.677
		c9.072,3.399,19.138,5.058,30.779,5.058c10.518,0,19.68-1.347,28.022-4.097c5.763-1.888,10.615-4.253,14.606-6.33l4.195-2.25
		c4.319-2.332,8.054-4.351,12.225-5.895l0.862-0.295c0.837-0.288,1.692-0.584,2.644-0.83c5.369-1.568,11.248-2.298,18.505-2.298
		c7.857,0,14.072,0.853,20.132,2.767c2.192,0.748,4.236,1.552,6.215,2.463c1.502,0.698,2.964,1.396,4.482,2.216l3.366,1.822
		c4.532,2.488,9.68,5.313,16.133,7.668c9.13,3.399,19.196,5.058,30.771,5.058c10.574,0,19.738-1.347,28.021-4.097
		c6.059-1.986,10.994-4.426,14.606-6.322l4.475-2.388c4.236-2.283,7.898-4.253,11.97-5.772c1.347-0.484,2.734-0.912,4.228-1.338
		c5.14-1.421,10.796-2.078,17.808-2.078c7.865,0,14.089,0.853,20.14,2.767c2.414,0.813,4.606,1.708,6.757,2.734
		c1.297,0.6,2.594,1.248,3.933,1.946l3.35,1.814c4.54,2.488,9.696,5.313,16.149,7.677c9.13,3.399,19.195,5.058,30.78,5.058
		c10.558,0,19.728-1.347,28.012-4.097c5.804-1.88,10.673-4.253,14.672-6.33l4.007-2.143c4.384-2.373,8.168-4.417,12.463-5.96
		c4.319-1.618,10.722-3.465,22.003-3.465h11.002c0.927,0,1.683-0.756,1.683-1.683v-21.995c0-0.928-0.756-1.683-1.683-1.683h-11.002
		c-10.517,0-19.68,1.322-28.014,4.039c-6.066,1.987-11.002,4.425-14.622,6.33l-3.711,1.995c-4.508,2.438-8.407,4.548-12.717,6.149
		c-4.417,1.593-10.928,3.424-22.093,3.482c-7.816,0-14.221-0.896-20.156-2.832c-3.366-1.092-6.56-2.496-10.681-4.672l-3.292-1.773
		c-1.831-0.994-3.76-2.036-5.812-3.071V282.683H510.317z M308.865,403.857c-5.698,1.88-10.493,4.219-14.45,6.272l-3.9,2.102
		c-4.417,2.39-8.235,4.458-12.545,6.042c-4.368,1.593-10.821,3.424-22.028,3.482c-7.816,0-14.22-0.896-20.155-2.832
		c-3.342-1.084-6.536-2.488-10.681-4.672l-3.392-1.823c-2.077-1.125-4.269-2.307-6.65-3.497v-40.558h93.801
		C308.865,368.372,308.865,403.84,308.865,403.857z M358.356,401.943c-6.478-1.47-13.235-2.183-20.599-2.183h-0.706
		c-2.939,0-5.69,0.106-8.325,0.295v-49.86c0-0.928-0.756-1.683-1.683-1.683H196.887c-0.928,0-1.683,0.755-1.683,1.683v51.551
		c-6.1-1.322-12.75-1.986-20.32-1.986c-0.016,0-0.024,0-0.041,0c-3.44,0-6.485,0.122-9.261,0.369V152.675
		c0-8.161-1.962-15.936-5.665-22.479c-3.309-5.976-7.972-10.69-13.128-13.284c-3.374-1.708-6.773-2.545-10.386-2.545
		c-3.612,0-7.011,0.837-10.378,2.545c-3.35,1.675-6.56,4.319-9.277,7.636c-6.051,7.242-9.524,17.496-9.524,28.128
		c0,8.169-6.643,14.812-14.811,14.812c-8.169,0-14.812-6.643-14.812-14.812c0-13.111,3.252-25.894,9.409-36.954
		c6.223-11.1,15.049-19.828,25.517-25.222c7.373-3.768,15.64-5.755,23.924-5.755c8.21,0,16.445,1.987,23.817,5.755
		c7.053,3.63,13.334,8.728,18.662,15.131c10.492,12.759,16.272,29.458,16.272,47.044v62.8c0,0.927,0.756,1.683,1.683,1.683h130.156
		c0.927,0,1.683-0.756,1.683-1.683v-62.8c0-8.168-1.962-15.944-5.657-22.479c-3.316-5.993-8.004-10.706-13.177-13.276
		c-3.325-1.716-6.716-2.553-10.344-2.553c-3.612,0-7.011,0.837-10.378,2.545c-3.301,1.659-6.527,4.294-9.335,7.636
		c-6.068,7.332-9.515,17.586-9.458,28.128c0,8.169-6.65,14.812-14.819,14.812s-14.811-6.643-14.811-14.812
		c0-13.202,3.251-25.976,9.409-36.954c6.223-11.1,15.049-19.819,25.525-25.222c7.372-3.768,15.64-5.755,23.924-5.755
		c8.21,0,16.444,1.987,23.809,5.755c7.11,3.687,13.374,8.785,18.613,15.131c10.476,12.734,16.272,29.442,16.33,47.044V401.943z"/>
</g>
</svg>